<?xml version="1.0" encoding="UTF-8"?>
<svg width="1440px" height="158px" viewBox="0 0 1440 158" version="1.1" xmlns="http://www.w3.org/2000/svg" xmlns:xlink="http://www.w3.org/1999/xlink">
    <!-- Generator: Sketch 52.6 (67491) - http://www.bohemiancoding.com/sketch -->
    <title>Path 3 + Path 3 Mask</title>
    <desc>Created with Sketch.</desc>
    <g id="Page-1" stroke="none" stroke-width="1" fill="none" fill-rule="evenodd">
        <g id="Artboard" transform="translate(0.000000, -321.000000)">
            <g id="Path-3-+-Path-3-Mask" transform="translate(0.000000, 321.000000)">
                <path d="M782.969841,130.609885 L801.468625,91.9842385 L770.427236,84.0011926 L838.518024,31.1135135 L855.540721,107.95033 L827.503338,98.9694037 L815.861254,136.411967 C804.374704,134.56109 793.443069,132.621323 782.969841,130.609885 Z" id="Path" fill="#E6E6E6"></path>
                <path d="M1167.43148,152.179066 L1131.64482,77.5939835 L1103.25428,92.3918737 L1108,1.13686838e-13 L1182.48073,53.3512479 L1155.6505,65.3986015 L1194.88103,150.363835 C1185.72568,151.041355 1176.57583,151.646432 1167.43148,152.179066 Z" id="Path" fill="#E6E6E6"></path>
                <path d="M1440,115.194289 L1440,118.078073 C1280.70479,151.884312 1123.03813,164.219986 967,155.085093 C654.34387,136.781361 656.048869,65.9095355 346.573357,54.06593 C230.557032,49.6259936 115.032579,70.9633746 0,118.078073 L0,115.194289 C115.032579,68.0795908 230.557032,46.7422098 346.573357,51.1821462 C656.048869,63.0257517 654.34387,133.897577 967,152.20131 C1123.03813,161.336202 1280.70479,149.000529 1440,115.194289 Z" id="Path" fill="#FF0000"></path>
            </g>
        </g>
    </g>
</svg>