<?xml version="1.0" encoding="UTF-8"?>
<svg width="1440px" height="386px" viewBox="0 0 1440 386" version="1.1" xmlns="http://www.w3.org/2000/svg" xmlns:xlink="http://www.w3.org/1999/xlink">
    <!-- Generator: Sketch 52.6 (67491) - http://www.bohemiancoding.com/sketch -->
    <title>combined all</title>
    <desc>Created with Sketch.</desc>
    <g id="Page-1" stroke="none" stroke-width="1" fill="none" fill-rule="evenodd">
        <g id="Artboard" transform="translate(0.000000, -93.000000)">
            <g id="combined-all" transform="translate(0.000000, 25.000000)">
                <path d="M782.969841,426.609885 L801.468625,387.984239 L770.427236,380.001193 L838.518024,327.113514 L855.540721,403.95033 L827.503338,394.969404 L815.861254,432.411967 C804.374704,430.56109 793.443069,428.621323 782.969841,426.609885 Z" id="Path" fill="#E6E6E6"></path>
                <path d="M1167.43148,448.179066 L1131.64482,373.593983 L1103.25428,388.391874 L1108,296 L1182.48073,349.351248 L1155.6505,361.398601 L1194.88103,446.363835 C1185.72568,447.041355 1176.57583,447.646432 1167.43148,448.179066 Z" id="Path" fill="#E6E6E6"></path>
                <path d="M1440,411.194289 L1440,414.078073 C1280.70479,447.884312 1123.03813,460.219986 967,451.085093 C654.34387,432.781361 656.048869,361.909535 346.573357,350.06593 C230.557032,345.625994 115.032579,366.963375 0,414.078073 L0,411.194289 C115.032579,364.079591 230.557032,342.74221 346.573357,347.182146 C656.048869,359.025752 654.34387,429.897577 967,448.20131 C1123.03813,457.336202 1280.70479,445.000529 1440,411.194289 Z" id="Path" fill="#FF0000"></path>
                <path d="M1301.10996,244.601121 C1305.71192,232.596228 1324.7749,167.602615 1358.29889,49.6202826 L1316.08801,38.7122637 L1408.67962,-33.5533618 L1431.82752,71.4363205 L1393.70157,59.1647992 C1379.98001,88.412429 1367.86501,120.01621 1357.35658,153.976142 C1343.16312,199.844912 1344.82999,234.993367 1333.78935,252.782135 C1322.74871,270.570904 1294.20703,262.608462 1301.10996,244.601121 Z" id="Path-3" fill="#E6E6E6" transform="translate(1365.937025, 114.611680) rotate(-111.000000) translate(-1365.937025, -114.611680) "></path>
            </g>
        </g>
    </g>
</svg>