<?xml version="1.0" encoding="UTF-8"?>
<svg viewBox="0 0 1651 437" version="1.1" xmlns="http://www.w3.org/2000/svg" xmlns:xlink="http://www.w3.org/1999/xlink">
    <!-- Generator: Sketch 52.6 (67491) - http://www.bohemiancoding.com/sketch -->
    <title>Rectangle</title>
    <desc>Created with Sketch.</desc>
    <defs>
        <radialGradient cx="0%" cy="9.77691233%" fx="0%" fy="9.77691233%" r="309.728968%" gradientTransform="translate(0.000000,0.097769),scale(0.262902,1.000000),rotate(13.916215),translate(-0.000000,-0.097769)" id="radialGradient-1">
            <stop stop-color="#FFFFFF" stop-opacity="0.5" offset="0%"></stop>
            <stop stop-color="#F5C8C8" stop-opacity="0.5" offset="100%"></stop>
        </radialGradient>
        <path d="M437.522348,16.3397468 C599.887534,34.8823562 979.184206,68.6104351 1262.76789,64.4420525 C1380.92551,62.7052596 1424.81611,46.3394029 1561.85688,4.33988442 C1698.89766,-37.6596341 1668.88873,329.336159 1509.84141,382.335551 C1350.79408,435.334943 968.665338,413.335196 789.627113,413.335196 C449.525919,413.335196 153.437821,476.334473 69.4128197,382.335551 C16.9760916,323.674487 -166.657421,-52.6594621 437.522348,16.3397468 Z" id="path-2"></path>
    </defs>
    <g id="Symbols" stroke="none" stroke-width="1" fill="none" fill-rule="evenodd">
        <g id="Footer" transform="translate(0.000000, 1.000000)">
            <g id="Rectangle">
                <use fill="#F7F7F7" xlink:href="#path-2"></use>
                <path stroke="#D3000E" stroke-width="2" d="M437.635813,15.3462049 C535.290922,26.4987221 671.075974,38.8282925 804.755961,47.9098213 C976.137988,59.5526321 1133.62455,65.340216 1262.7532,63.4421605 C1314.46284,62.6820831 1352.36074,59.1263654 1390.59004,51.5527887 C1412.75747,47.1612166 1435.61647,41.3407135 1465.22713,32.7175487 C1477.56953,29.1232159 1490.96078,25.0875079 1509.33334,19.4518081 C1515.58531,17.5340451 1550.60402,6.74269194 1561.56386,3.38377875 C1594.54837,-6.72513714 1619.7231,6.12912338 1634.81235,37.8000043 C1648.59131,66.7207224 1653.13521,110.05711 1647.87618,157.822566 C1642.53405,206.342744 1627.53471,255.571646 1605.2111,295.49646 C1580.45618,339.769553 1548.01714,370.6683 1510.15755,383.284264 C1436.2292,407.91943 1312.39744,418.154925 1137.8329,418.825971 C1079.56702,419.049951 1025.134,418.346795 937.795842,416.598334 C837.359337,414.587652 822.543483,414.335196 789.627113,414.335196 C707.23234,414.335196 632.919913,417.438048 512.283161,424.665808 C396.853008,431.581623 398.135141,431.507908 360.853841,433.073288 C309.148992,435.244288 268.121171,435.635315 232.675863,433.983822 C149.844697,430.124495 97.0310687,414.732635 68.6672659,383.001996 C52.8879,365.349591 32.426435,328.928952 18.9035803,291.03415 C1.3064698,241.722151 -4.20320827,193.351528 6.26591545,151.223873 C19.066343,99.7150724 55.0453531,59.9130894 117.374899,35.2385437 C189.481526,6.69352167 295.133859,-0.927961558 437.635813,15.3462049 Z" fill="url(#radialGradient-1)"></path>
            </g>
        </g>
    </g>
</svg>